#!OML:ASF H:\Terrain\Patient Classification 1\Terrain2\Thursday\justin.ASF
:FULLY-SPECIFIED
:DEGREES
3270
root -11.4049 17.5102 20.8111 716.254 -514.019 4.81246
lowerback 5.34428 1.51404 1.76984
upperback 3.21834 1.88167 3.12241
thorax 0.270548 0.843064 2.12165
lowerneck -12.1613 -1.12448 -9.6276
upperneck 38.6811 -5.68912 7.04241
head 16.3415 -4.08254 3.5069
rclavicle -3.3197e-014 -1.59028e-015
rhumerus -28.2443 -5.3022 -78.8642
rradius 33.4242
rwrist -11.3094
rhand -18.7309 12.743
rfingers 7.12502
rthumb 7.56486 -17.1017
lclavicle -3.3197e-014 -1.59028e-015
lhumerus -37.4099 11.8658 85.0887
lradius 22.2332
lwrist -6.98466
lhand -13.7321 22.9659
lfingers 7.12502
lthumb 12.3874 52.5788
rfemur -7.35952 10.4041 22.3793
rtibia 30.8122
rfoot -16.1218 30.3684
rtoes 24.4922
lfemur -7.59099 -10.6809 -10.2131
ltibia 27.9887
lfoot -11.9159 -21.3058
ltoes 12.3247
3271
root -11.4521 17.5171 20.8169 716.589 -514.395 4.10164
lowerback 5.38005 1.39422 1.02144
upperback 3.2111 1.70154 3.02229
thorax 0.227038 0.748951 2.44639
lowerneck -12.4563 -1.14917 -9.62428
upperneck 38.9754 -5.74183 6.89306
head 16.5736 -4.14481 3.42933
rclavicle 6.30644e-014 2.10712e-014
rhumerus -28.3636 -5.61204 -78.5711
rradius 33.4941
rwrist -11.114
rhand -19.1914 12.0618
rfingers 7.12502
rthumb 7.12041 -17.7984
lclavicle 6.30644e-014 2.10712e-014
lhumerus -37.347 11.3184 85.3531
lradius 22.6561
lwrist -6.46544
lhand -13.3492 22.8349
lfingers 7.12502
lthumb 12.7566 52.4252
rfemur -7.49311 10.5088 21.5635
rtibia 31.1443
rfoot -16.1839 30.4786
rtoes 24.7658
lfemur -7.01493 -10.2718 -11.1052
ltibia 27.3039
lfoot -11.9925 -21.0724
ltoes 13.1853
3272
root -11.5019 17.5259 20.823 717.057 -514.733 3.29936
lowerback 5.33622 1.29347 0.291966
upperback 3.09442 1.55904 2.8185
thorax 0.121219 0.680719 2.65278
lowerneck -11.9387 -1.24165 -9.94487
upperneck 38.7135 -6.03948 7.27938
head 16.371 -4.28857 3.60264
rclavicle 4.55217e-014 3.81667e-014
rhumerus -28.727 -5.61103 -78.4038
rradius 33.8233
rwrist -11.1231
rhand -19.0987 9.2369
rfingers 7.12502
rthumb 7.20986 -20.6203
lclavicle 4.55217e-014 3.81667e-014
lhumerus -37.473 10.6173 85.4581
lradius 23.0361
lwrist -6.09955
lhand -13.812 22.8148
lfingers 7.12502
lthumb 12.3104 52.4324
rfemur -7.79839 10.6633 20.6186
rtibia 31.4457
rfoot -15.7502 30.6279
rtoes 26.0538
lfemur -6.60726 -10.3124 -12.133
ltibia 26.6965
lfoot -12.4999 -20.4375
ltoes 11.9962
3273
root -11.5535 17.5323 20.8346 717.58 -515.215 2.55393
lowerback 5.31749 1.11059 -0.392898
upperback 2.97474 1.30448 2.65209
thorax 0.00780471 0.555914 2.87906
lowerneck -11.4931 -1.26581 -10.374
upperneck 38.2926 -6.14885 7.71215
head 16.0879 -4.34849 3.84592
rclavicle -3.35946e-014 -1.82882e-014
rhumerus -28.8126 -5.31957 -78.4288
rradius 33.9324
rwrist -11.9227
rhand -19.4286 10.336
rfingers 7.12502
rthumb 6.89146 -19.5319
lclavicle -3.35946e-014 -1.82882e-014
lhumerus -37.4949 10.4006 85.3859
lradius 23.2396
lwrist -6.09851
lhand -14.6044 23.3274
lfingers 7.12502
lthumb 11.5463 52.9894
rfemur -8.22657 10.8251 19.6846
rtibia 31.7046
rfoot -15.902 30.7364
rtoes 26.1229
lfemur -6.37403 -10.353 -13.0735
ltibia 26.2493
lfoot -12.6454 -19.9349
ltoes 12.3266
3274
root -11.6071 17.5359 20.8514 717.842 -515.794 2.35405
lowerback 5.31702 0.966584 -0.523785
upperback 2.91806 1.11172 2.60943
thorax -0.0416761 0.460985 2.91867
lowerneck -11.3499 -1.33115 -10.7079
upperneck 38.0162 -6.2565 7.9812
head 15.9492 -4.4069 4.00004
rclavicle -3.85145e-014 1.98785e-014
rhumerus -28.4872 -5.95136 -78.2077
rradius 33.2775
rwrist -12.3751
rhand -18.7463 12.4498
rfingers 7.12502
rthumb 7.55001 -17.3954
lclavicle -3.85145e-014 1.98785e-014
lhumerus -37.3484 9.91141 85.4851
lradius 23.4762
lwrist -5.92372
lhand -15.9406 24.7882
lfingers 7.12502
lthumb 10.2575 54.5181
rfemur -8.60911 10.9773 19.2718
rtibia 31.9559
rfoot -16.4535 30.9241
rtoes 25.2425
lfemur -6.246 -10.1138 -13.4343
ltibia 25.9597
lfoot -12.7631 -19.6848
ltoes 11.7686
3275
root -11.6569 17.5353 20.8685 717.95 -516.291 2.4021
lowerback 5.21759 0.861732 -0.364755
upperback 2.97031 0.973446 2.57672
thorax 0.078131 0.390954 2.8042
lowerneck -11.2464 -1.47327 -10.9822
upperneck 37.7279 -6.51526 8.31527
head 15.8395 -4.50717 4.14615
rclavicle -7.72278e-014 1.35174e-014
rhumerus -28.001 -6.99259 -77.9047
rradius 32.5738
rwrist -12.5765
rhand -19.1521 13.9357
rfingers 7.12502
rthumb 7.15834 -15.9233
lclavicle -7.72278e-014 1.35174e-014
lhumerus -37.0523 8.95413 85.7356
lradius 23.8516
lwrist -5.15028
lhand -16.8167 26.0967
lfingers 7.12502
lthumb 9.41219 55.8665
rfemur -8.85363 11.2942 19.1431
rtibia 32.2213
rfoot -16.7399 30.7719
rtoes 24.6371
lfemur -6.21506 -9.64963 -13.5121
ltibia 25.778
lfoot -12.7333 -19.6986
ltoes 10.5748
3276
root -11.6993 17.5374 20.886 718.13 -516.742 2.29975
lowerback 5.14532 0.720392 -0.364455
upperback 3.03832 0.78122 2.4804
thorax 0.199438 0.293503 2.71551
lowerneck -11.388 -1.52005 -10.9857
upperneck 37.6744 -6.66999 8.51768
head 15.8785 -4.54868 4.20574
rclavicle 3.67255e-014 4.17448e-014
rhumerus -27.5693 -7.91919 -77.7796
rradius 32.0405
rwrist -12.3676
rhand -19.5985 13.8261
rfingers 7.12502
rthumb 6.72742 -16.047
lclavicle 3.67255e-014 4.17448e-014
lhumerus -36.6384 8.33584 85.7117
lradius 24.1449
lwrist -4.3229
lhand -16.0928 24.8551
lfingers 7.12502
lthumb 10.1107 54.5922
rfemur -9.1489 11.5262 18.8989
rtibia 32.5149
rfoot -16.9703 30.384
rtoes 24.5735
lfemur -6.26634 -8.96691 -13.6571
ltibia 25.6598
lfoot -12.2303 -20.2653
ltoes 11.5347
3277
root -11.7368 17.5431 20.9018 718.272 -517.217 2.19404
lowerback 5.16029 0.619933 -0.491726
upperback 3.07635 0.638752 2.46542
thorax 0.236155 0.219099 2.77897
lowerneck -11.5403 -1.50385 -10.895
upperneck 37.7567 -6.68177 8.46635
head 15.9531 -4.55546 4.16272
rclavicle -1.76421e-014 5.56597e-015
rhumerus -27.4427 -8.71892 -77.5564
rradius 31.7881
rwrist -11.7234
rhand -19.6061 13.8892
rfingers 7.12502
rthumb 6.7201 -15.9842
lclavicle -1.76421e-014 5.56597e-015
lhumerus -36.259 7.88073 85.6613
lradius 24.2996
lwrist -4.19796
lhand -15.7566 24.9085
lfingers 7.12502
lthumb 10.435 54.6296
rfemur -9.50705 11.7495 18.7049
rtibia 32.8474
rfoot -16.8817 30.1752
rtoes 25.5024
lfemur -6.24513 -8.36725 -13.7662
ltibia 25.535
lfoot -11.7735 -20.9603
ltoes 14.0589
3278
root -11.7724 17.5515 20.9177 718.551 -517.677 1.89456
lowerback 5.21878 0.499965 -0.914996
upperback 3.02036 0.464891 2.51472
thorax 0.151577 0.128913 3.07696
lowerneck -11.6796 -1.44865 -10.9844
upperneck 37.8265 -6.495 8.25001
head 15.9892 -4.52132 4.11332
rclavicle 6.46547e-014 -9.54166e-015
rhumerus -27.6716 -7.2358 -78.1719
rradius 30.2231
rwrist -6.49981
rhand -27.8885 16.9982
rfingers 7.12502
rthumb -1.27826 -12.9777
lclavicle 6.46547e-014 -9.54166e-015
lhumerus -36.0952 7.71859 85.5896
lradius 24.4531
lwrist -4.23403
lhand -16.1523 24.99
lfingers 7.12502
lthumb 10.0532 54.7298
rfemur -9.9622 11.9197 18.3259
rtibia 33.2354
rfoot -17.2429 29.7517
rtoes 24.1041
lfemur -6.27283 -7.75484 -14.083
ltibia 25.3657
lfoot -11.8134 -21.3521
ltoes 14.456
3279
root -11.8059 17.5654 20.936 718.845 -518.126 1.71529
lowerback 5.38622 0.374874 -1.12711
upperback 2.81607 0.303953 2.47319
thorax -0.142846 0.0566496 3.16147
lowerneck -11.8054 -1.38844 -11.1252
upperneck 38.0288 -6.47679 8.32982
head 16.1308 -4.55045 4.17801
rclavicle -7.87684e-014 2.94201e-014
rhumerus -27.6644 -9.34167 -77.1775
rradius 31.7452
rwrist -11.1457
rhand -20.8062 12.693
rfingers 7.12502
rthumb 5.56143 -17.214
lclavicle -7.87684e-014 2.94201e-014
lhumerus -36.1411 7.47268 85.2618
lradius 24.7326
lwrist -3.81659
lhand -15.8467 24.8705
lfingers 7.12502
lthumb 10.3481 54.5959
rfemur -10.4251 12.0826 18.067
rtibia 33.5984
rfoot -17.6915 28.9292
rtoes 21.772
lfemur -6.43285 -6.94446 -14.2391
ltibia 25.1781
lfoot -11.4113 -21.9488
ltoes 14.8435
3280
root -11.8406 17.5659 20.9557 719.031 -518.6 1.75146
lowerback 5.41977 0.330503 -1.01947
upperback 2.7031 0.258707 2.37906
thorax -0.274167 0.041476 3.00567
lowerneck -11.8059 -1.42207 -11.0765
upperneck 38.1166 -6.67026 8.44013
head 16.2084 -4.6327 4.18323
rclavicle -1.03865e-014 2.38542e-015
rhumerus -28.0404 -10.0703 -77.081
rradius 31.9951
rwrist -11.0441
rhand -20.4562 12.5018
rfingers 7.12502
rthumb 5.89935 -17.396
lclavicle -1.03865e-014 2.38542e-015
lhumerus -35.9803 6.89581 84.9038
lradius 25.038
lwrist -3.5522
lhand -15.1542 25.1424
lfingers 7.12502
lthumb 11.016 54.8333
rfemur -10.758 12.4207 18.0207
rtibia 33.9008
rfoot -17.5491 28.0258
rtoes 21.9701
lfemur -6.56563 -6.39077 -14.1863
ltibia 25.0138
lfoot -10.6529 -22.5357
ltoes 17.1915
